<?xml version="1.0" encoding="UTF-8"?>
<!DOCTYPE svg PUBLIC "-//W3C//DTD SVG 1.1//EN" "http://www.w3.org/Graphics/SVG/1.1/DTD/svg11.dtd">
<svg xmlns="http://www.w3.org/2000/svg" version="1.1" width="444px" height="250px" style="shape-rendering:geometricPrecision; text-rendering:geometricPrecision; image-rendering:optimizeQuality; fill-rule:evenodd; clip-rule:evenodd" xmlns:xlink="http://www.w3.org/1999/xlink">
<g><path style="opacity:1" fill="#d9fe9c" d="M -0.5,-0.5 C 147.5,-0.5 295.5,-0.5 443.5,-0.5C 443.5,82.8333 443.5,166.167 443.5,249.5C 295.5,249.5 147.5,249.5 -0.5,249.5C -0.5,166.167 -0.5,82.8333 -0.5,-0.5 Z"/></g>
<g><path style="opacity:1" fill="#409ce4" d="M 137.5,2.5 C 128.148,2.43431 118.815,2.76764 109.5,3.5C 114.925,2.01575 120.591,1.34908 126.5,1.5C 130.349,1.50131 134.016,1.83465 137.5,2.5 Z"/></g>
<g><path style="opacity:1" fill="#057afd" d="M 137.5,2.5 C 158.191,3.84138 177.191,10.1747 194.5,21.5C 206.5,30.1667 216.833,40.5 225.5,52.5C 229.768,59.3725 233.768,66.3725 237.5,73.5C 240.609,82.4809 243.275,91.4809 245.5,100.5C 246.218,109.482 246.552,118.482 246.5,127.5C 246.024,145.218 242.357,162.218 235.5,178.5C 225.795,198.2 212.128,214.533 194.5,227.5C 158.927,248.888 121.594,252.388 82.5,238C 76.1395,234.488 69.8062,230.988 63.5,227.5C 45.1533,214.825 31.1533,198.492 21.5,178.5C 10.794,149.178 8.62733,119.178 15,88.5C 16.8785,82.362 19.0452,76.362 21.5,70.5C 31.1748,50.8253 44.8415,34.492 62.5,21.5C 74.0525,14.3933 86.3858,8.8933 99.5,5C 102.757,3.95713 106.09,3.45713 109.5,3.5C 118.815,2.76764 128.148,2.43431 137.5,2.5 Z"/></g>
<g><path style="opacity:1" fill="#5ebde5" d="M 62.5,21.5 C 44.8415,34.492 31.1748,50.8253 21.5,70.5C 21.5,54.1667 21.5,37.8333 21.5,21.5C 35.1667,21.5 48.8333,21.5 62.5,21.5 Z"/></g>
<g><path style="opacity:1" fill="#60bde5" d="M 194.5,21.5 C 270.167,21.5 345.833,21.5 421.5,21.5C 421.5,32.1667 421.5,42.8333 421.5,53.5C 420.698,52.0484 420.198,50.3817 420,48.5C 419.517,49.448 419.351,50.448 419.5,51.5C 417.085,51.6265 414.751,51.7932 412.5,52C 411.289,50.8869 411.289,49.7202 412.5,48.5C 409.633,47.2259 406.633,46.3925 403.5,46C 404.833,45 404.833,44 403.5,43C 399.514,42.5012 395.514,42.3345 391.5,42.5C 391.5,41.5 391.5,40.5 391.5,39.5C 333.499,39.3333 275.499,39.5 217.5,40C 219.48,42.5029 221.813,44.3362 224.5,45.5C 224.993,47.8056 225.326,50.139 225.5,52.5C 216.833,40.5 206.5,30.1667 194.5,21.5 Z"/></g>
<g><path style="opacity:1" fill="#d9fd9a" d="M 193.5,199.5 C 191.668,198.752 190.001,197.752 188.5,196.5C 187.066,193.953 185.4,191.619 183.5,189.5C 182.208,184.884 180.208,180.55 177.5,176.5C 176.737,174.632 175.737,172.965 174.5,171.5C 175.527,167.783 177.361,164.45 180,161.5C 183.536,158.299 186.703,154.799 189.5,151C 190.938,150.781 192.271,150.281 193.5,149.5C 187.5,148.167 181.5,148.167 175.5,149.5C 181.527,150.739 183.027,154.072 180,159.5C 177.242,161.751 175.075,164.418 173.5,167.5C 169.28,163.418 165.947,158.585 163.5,153C 163.645,152.228 163.978,151.561 164.5,151C 166.256,150.798 167.922,150.298 169.5,149.5C 162.345,148.833 155.345,148.167 148.5,147.5C 154.091,145.058 157.257,140.725 158,134.5C 158.667,131.833 158.667,129.167 158,126.5C 156.759,124.579 155.259,124.246 153.5,125.5C 153.487,131.144 153.154,136.81 152.5,142.5C 151.5,142.5 150.5,142.5 149.5,142.5C 149.046,139.86 147.879,137.527 146,135.5C 145.467,125.724 144.301,116.057 142.5,106.5C 138.087,101.729 132.753,98.7293 126.5,97.5C 133.4,96.5459 139.4,93.8793 144.5,89.5C 152.849,81.9271 154.682,72.9271 150,62.5C 147.403,60.1824 144.903,57.6824 142.5,55C 135.269,52.697 128.102,50.5303 121,48.5C 104.234,49.2851 87.4003,49.9518 70.5,50.5C 67.6445,50.4975 64.9779,50.1641 62.5,49.5C 93.3403,22.7014 128.007,16.5347 166.5,31C 198.26,45.9805 217.427,70.8138 224,105.5C 228.818,137.456 221.484,166.123 202,191.5C 199.297,194.371 196.464,197.038 193.5,199.5 Z"/></g>
<g><path style="opacity:1" fill="#60c4e6" d="M 421.5,53.5 C 421.5,62.8333 421.5,72.1667 421.5,81.5C 420.15,78.894 418.65,78.894 417,81.5C 413.906,81.2072 412.406,79.5406 412.5,76.5C 407.069,77.9064 404.735,75.9064 405.5,70.5C 402.503,71.3201 399.669,71.6535 397,71.5C 396.51,70.2068 396.343,68.8734 396.5,67.5C 393.333,67.5999 390.333,66.9332 387.5,65.5C 362.669,66.7231 338.502,66.7231 315,65.5C 312.273,66.0629 309.607,66.7295 307,67.5C 302.7,65.0451 298.034,65.0451 293,67.5C 292.311,66.6433 291.478,65.9767 290.5,65.5C 276.449,66.5132 261.949,66.5132 247,65.5C 243.135,65.985 239.302,66.6517 235.5,67.5C 236.128,69.2581 237.128,70.7581 238.5,72C 237.944,72.3826 237.611,72.8826 237.5,73.5C 233.768,66.3725 229.768,59.3725 225.5,52.5C 225.326,50.139 224.993,47.8056 224.5,45.5C 221.813,44.3362 219.48,42.5029 217.5,40C 275.499,39.5 333.499,39.3333 391.5,39.5C 391.5,40.5 391.5,41.5 391.5,42.5C 395.514,42.3345 399.514,42.5012 403.5,43C 404.833,44 404.833,45 403.5,46C 406.633,46.3925 409.633,47.2259 412.5,48.5C 411.289,49.7202 411.289,50.8869 412.5,52C 414.751,51.7932 417.085,51.6265 419.5,51.5C 419.351,50.448 419.517,49.448 420,48.5C 420.198,50.3817 420.698,52.0484 421.5,53.5 Z"/></g>
<g><path style="opacity:1" fill="#1b1f16" d="M 144.5,89.5 C 143.449,88.7777 142.782,87.7777 142.5,86.5C 143.117,86.6107 143.617,86.944 144,87.5C 145.333,86.1667 146.667,84.8333 148,83.5C 148.749,82.365 148.583,81.365 147.5,80.5C 145.276,82.434 142.942,84.1006 140.5,85.5C 139.85,85.1961 139.183,84.8627 138.5,84.5C 136.417,86.2485 134.084,87.0818 131.5,87C 132.328,86.0853 133.328,85.4186 134.5,85C 134.272,84.6012 133.938,84.4346 133.5,84.5C 138.508,80.1711 143.841,76.1711 149.5,72.5C 150.833,70.8333 150.833,69.1667 149.5,67.5C 147.298,69.268 144.965,70.4346 142.5,71C 143.685,69.647 145.019,68.4803 146.5,67.5C 147.452,65.9547 147.785,64.288 147.5,62.5C 142.975,63.4289 138.975,65.4289 135.5,68.5C 136.025,69.1924 136.692,69.6924 137.5,70C 135.866,70.4935 134.199,70.6602 132.5,70.5C 132.5,72.5 132.5,74.5 132.5,76.5C 131.833,75.8333 131.167,75.1667 130.5,74.5C 129.602,73.8423 128.602,73.1757 127.5,72.5C 130.06,70.3257 130.06,68.159 127.5,66C 127.735,65.1268 128.069,64.2935 128.5,63.5C 126.995,62.1585 126.328,60.4918 126.5,58.5C 122.416,59.0547 121.749,58.0547 124.5,55.5C 119.962,52.6555 114.962,51.3222 109.5,51.5C 106.097,51.5611 102.764,52.0611 99.5,53C 95.8729,55.1122 95.8729,56.7789 99.5,58C 96.2098,60.1079 95.8765,62.4413 98.5,65C 97.1955,65.804 96.5288,66.9707 96.5,68.5C 97.2372,71.095 97.2372,73.7616 96.5,76.5C 97.675,76.281 98.675,76.6143 99.5,77.5C 96.9108,83.497 95.9108,89.8303 96.5,96.5C 95.5326,95.1938 94.1993,94.5271 92.5,94.5C 93.4293,93.6851 94.4293,92.8518 95.5,92C 94.552,91.5172 93.552,91.3505 92.5,91.5C 91.8333,92.5 91.1667,93.5 90.5,94.5C 90.1667,95.1667 89.8333,95.8333 89.5,96.5C 85.2168,98.943 81.0502,101.61 77,104.5C 76.4092,105.483 76.7425,106.15 78,106.5C 80.3714,104.626 82.8714,102.96 85.5,101.5C 87.7033,101.065 89.7033,101.065 91.5,101.5C 90.0892,103.914 88.0892,105.581 85.5,106.5C 85.9175,107.222 86.5842,107.722 87.5,108C 83.4031,110.37 79.7365,113.203 76.5,116.5C 75.5489,117.919 75.2155,119.585 75.5,121.5C 74.8045,117.769 74.1378,113.935 73.5,110C 75.9544,98.6599 76.7877,87.1599 76,75.5C 75.1072,76.7112 74.2739,76.7112 73.5,75.5C 76.6388,71.6021 77.3055,67.2688 75.5,62.5C 78.1751,60.6244 77.8418,59.1244 74.5,58C 74.9574,57.586 75.2907,57.086 75.5,56.5C 74.3128,55.4805 73.3128,54.3139 72.5,53C 68.1794,52.501 63.8461,52.3343 59.5,52.5C 58.596,51.791 58.2627,50.791 58.5,49.5C 59.8333,49.5 61.1667,49.5 62.5,49.5C 64.9779,50.1641 67.6445,50.4975 70.5,50.5C 87.4003,49.9518 104.234,49.2851 121,48.5C 128.102,50.5303 135.269,52.697 142.5,55C 144.903,57.6824 147.403,60.1824 150,62.5C 154.682,72.9271 152.849,81.9271 144.5,89.5 Z"/></g>
<g><path style="opacity:1" fill="#768a57" d="M 83.5,53.5 C 82.2318,55.047 80.5652,56.047 78.5,56.5C 77.4489,55.7777 76.7822,54.7777 76.5,53.5C 75.9569,53.44 75.6236,53.1067 75.5,52.5C 78.1062,51.3483 80.7728,51.1816 83.5,52C 82.2617,52.69 82.2617,53.19 83.5,53.5 Z"/></g>
<g><path style="opacity:1" fill="#98af6f" d="M 123.5,52.5 C 125.089,51.3789 126.756,51.5456 128.5,53C 126.735,53.6397 125.068,53.4731 123.5,52.5 Z"/></g>
<g><path style="opacity:1" fill="#cff5a1" d="M 59.5,52.5 C 63.8461,52.3343 68.1794,52.501 72.5,53C 73.3128,54.3139 74.3128,55.4805 75.5,56.5C 75.2907,57.086 74.9574,57.586 74.5,58C 77.8418,59.1244 78.1751,60.6244 75.5,62.5C 74.4324,61.5655 73.099,61.2322 71.5,61.5C 71.6713,58.2027 71.0046,57.8694 69.5,60.5C 61.1801,63.5269 53.6801,67.1935 47,71.5C 45.694,73.5358 45.5273,75.5358 46.5,77.5C 45.455,79.2049 44.1217,80.7049 42.5,82C 43.4491,82.6172 44.2825,82.4506 45,81.5C 45.6667,84.8333 45.6667,88.1667 45,91.5C 41.6539,96.8662 38.3206,102.2 35,107.5C 34.5001,119.162 34.3335,130.829 34.5,142.5C 28.4314,108.515 36.7647,78.5147 59.5,52.5 Z"/></g>
<g><path style="opacity:1" fill="#dbfe9d" d="M 76.5,53.5 C 77.9464,52.3871 79.6131,52.2204 81.5,53C 79.9769,54.7884 78.3102,54.9551 76.5,53.5 Z"/></g>
<g><path style="opacity:1" fill="#d2f298" d="M 91.5,52.5 C 96.5058,52.5658 96.5058,53.5658 91.5,55.5C 90.913,54.7666 90.913,53.7666 91.5,52.5 Z"/></g>
<g><path style="opacity:1" fill="#d7fa99" d="M 130.5,74.5 C 130.854,77.4206 129.854,79.7539 127.5,81.5C 128.428,82.7678 128.595,84.1011 128,85.5C 124.751,91.7363 119.585,95.2363 112.5,96C 107.177,96.4994 101.844,96.666 96.5,96.5C 95.9108,89.8303 96.9108,83.497 99.5,77.5C 98.675,76.6143 97.675,76.281 96.5,76.5C 97.2372,73.7616 97.2372,71.095 96.5,68.5C 96.5288,66.9707 97.1955,65.804 98.5,65C 95.8765,62.4413 96.2098,60.1079 99.5,58C 95.8729,56.7789 95.8729,55.1122 99.5,53C 102.764,52.0611 106.097,51.5611 109.5,51.5C 114.962,51.3222 119.962,52.6555 124.5,55.5C 121.749,58.0547 122.416,59.0547 126.5,58.5C 126.328,60.4918 126.995,62.1585 128.5,63.5C 128.069,64.2935 127.735,65.1268 127.5,66C 130.06,68.159 130.06,70.3257 127.5,72.5C 128.602,73.1757 129.602,73.8423 130.5,74.5 Z"/></g>
<g><path style="opacity:1" fill="#a7bf7b" d="M 133.5,56.5 C 131.956,56.7031 130.622,57.3698 129.5,58.5C 129.167,58.1667 128.833,57.8333 128.5,57.5C 129.5,56.1667 130.5,54.8333 131.5,53.5C 131.088,54.7824 131.754,55.7824 133.5,56.5 Z"/></g>
<g><path style="opacity:1" fill="#bedb87" d="M 133.5,56.5 C 137.543,54.07 140.877,55.07 143.5,59.5C 140.697,63.802 136.863,66.802 132,68.5C 131.493,67.0039 131.993,65.8373 133.5,65C 133.167,64.6667 132.833,64.3333 132.5,64C 137.849,60.3359 137.515,59.8359 131.5,62.5C 131.167,62.1667 130.833,61.8333 130.5,61.5C 131.26,59.6396 132.26,57.973 133.5,56.5 Z"/></g>
<g><path style="opacity:1" fill="#d9fd9a" d="M 75.5,62.5 C 77.3055,67.2688 76.6388,71.6021 73.5,75.5C 74.2739,76.7112 75.1072,76.7112 76,75.5C 76.7877,87.1599 75.9544,98.6599 73.5,110C 74.1378,113.935 74.8045,117.769 75.5,121.5C 76.0808,128.109 75.2475,134.442 73,140.5C 68.3492,143.771 63.1825,145.105 57.5,144.5C 57.5,145.5 57.5,146.5 57.5,147.5C 77.4948,148.085 97.4948,148.419 117.5,148.5C 117.5,147.5 117.5,146.5 117.5,145.5C 112.489,145.666 107.489,145.499 102.5,145C 100.525,144.022 98.8582,142.689 97.5,141C 96.7104,129.578 96.377,118.411 96.5,107.5C 96.722,105.945 97.3887,104.611 98.5,103.5C 96.9951,102.158 96.3285,100.492 96.5,98.5C 103.351,99.6053 110.184,99.6053 117,98.5C 120.706,98.9095 122.539,100.909 122.5,104.5C 126.123,104.649 126.457,105.816 123.5,108C 124.022,108.95 124.689,109.784 125.5,110.5C 125.747,114.783 125.747,119.117 125.5,123.5C 126.773,128.8 127.939,134.133 129,139.5C 133.612,147.224 140.445,150.89 149.5,150.5C 150.171,151.847 150.171,153.014 149.5,154C 150.766,154.309 151.933,154.809 153,155.5C 155.134,159.313 157.301,163.147 159.5,167C 159.167,167.333 158.833,167.667 158.5,168C 160.324,168.66 161.657,169.827 162.5,171.5C 163.773,173.713 164.773,176.046 165.5,178.5C 162.497,182.343 159.664,186.343 157,190.5C 154.278,193.444 151.111,195.777 147.5,197.5C 146.614,198.325 146.281,199.325 146.5,200.5C 153.175,200.666 159.842,200.5 166.5,200C 157.073,198.643 155.24,194.143 161,186.5C 162.719,183.712 164.885,181.379 167.5,179.5C 167.5,180.167 167.833,180.5 168.5,180.5C 169.34,182.853 170.674,184.853 172.5,186.5C 173.68,189.54 175.347,192.206 177.5,194.5C 177.5,196.167 177.5,197.833 177.5,199.5C 175.396,199.201 173.396,199.534 171.5,200.5C 173.743,201.474 176.076,201.808 178.5,201.5C 182.833,201.5 187.167,201.5 191.5,201.5C 167.836,221.843 140.502,229.177 109.5,223.5C 107.485,222.076 105.152,221.41 102.5,221.5C 69.2555,211.422 47.4222,189.756 37,156.5C 35.5251,151.937 34.6917,147.27 34.5,142.5C 34.3335,130.829 34.5001,119.162 35,107.5C 38.3206,102.2 41.6539,96.8662 45,91.5C 45.6667,88.1667 45.6667,84.8333 45,81.5C 44.2825,82.4506 43.4491,82.6172 42.5,82C 44.1217,80.7049 45.455,79.2049 46.5,77.5C 45.5273,75.5358 45.694,73.5358 47,71.5C 53.6801,67.1935 61.1801,63.5269 69.5,60.5C 71.0046,57.8694 71.6713,58.2027 71.5,61.5C 73.099,61.2322 74.4324,61.5655 75.5,62.5 Z"/></g>
<g><path style="opacity:1" fill="#cae991" d="M 85.5,61.5 C 84.2905,61.9321 83.2905,62.5987 82.5,63.5C 81.2921,64.2341 79.9587,64.5674 78.5,64.5C 78.4802,62.857 79.1468,61.5237 80.5,60.5C 79.1468,59.4763 78.4802,58.143 78.5,56.5C 80.5652,56.047 82.2318,55.047 83.5,53.5C 85.4957,51.6668 87.829,51.1668 90.5,52C 88.5,53 86.5,54 84.5,55C 84.9302,55.9195 85.2635,56.7528 85.5,57.5C 86.7481,56.9598 87.9148,56.2931 89,55.5C 89.1667,56 89.3333,56.5 89.5,57C 87.9818,58.3506 86.6485,59.8506 85.5,61.5 Z"/></g>
<g><path style="opacity:1" fill="#9ab270" d="M 91.5,63.5 C 91.1667,63.5 90.8333,63.5 90.5,63.5C 88.0399,62.8637 85.7065,63.5303 83.5,65.5C 83.6716,64.5084 83.3382,63.8417 82.5,63.5C 83.2905,62.5987 84.2905,61.9321 85.5,61.5C 88.6067,60.1113 91.6067,58.4446 94.5,56.5C 95.452,57.533 95.452,58.6996 94.5,60C 93.4558,61.1739 92.4558,62.3406 91.5,63.5 Z"/></g>
<g><path style="opacity:1" fill="#ceed94" d="M 90.5,63.5 C 87.0979,65.9531 83.5979,68.2865 80,70.5C 78.7425,70.1501 78.4092,69.4835 79,68.5C 80.129,66.8588 81.629,65.8588 83.5,65.5C 85.7065,63.5303 88.0399,62.8637 90.5,63.5 Z"/></g>
<g><path style="opacity:1" fill="#60cae6" d="M 421.5,81.5 C 421.5,92.1667 421.5,102.833 421.5,113.5C 421.167,113.5 420.833,113.5 420.5,113.5C 420.666,108.156 420.499,102.823 420,97.5C 419.626,98.4162 419.126,99.2496 418.5,100C 409.539,101.93 400.873,101.43 392.5,98.5C 346.172,98.8388 299.839,98.8388 253.5,98.5C 250.689,99.0796 248.023,99.7463 245.5,100.5C 243.275,91.4809 240.609,82.4809 237.5,73.5C 237.611,72.8826 237.944,72.3826 238.5,72C 237.128,70.7581 236.128,69.2581 235.5,67.5C 239.302,66.6517 243.135,65.985 247,65.5C 261.949,66.5132 276.449,66.5132 290.5,65.5C 291.478,65.9767 292.311,66.6433 293,67.5C 298.034,65.0451 302.7,65.0451 307,67.5C 309.607,66.7295 312.273,66.0629 315,65.5C 338.502,66.7231 362.669,66.7231 387.5,65.5C 390.333,66.9332 393.333,67.5999 396.5,67.5C 396.343,68.8734 396.51,70.2068 397,71.5C 399.669,71.6535 402.503,71.3201 405.5,70.5C 404.735,75.9064 407.069,77.9064 412.5,76.5C 412.406,79.5406 413.906,81.2072 417,81.5C 418.65,78.894 420.15,78.894 421.5,81.5 Z"/></g>
<g><path style="opacity:1" fill="#ceef93" d="M 133.5,84.5 C 132.504,84.4142 131.671,84.7476 131,85.5C 131.453,82.3204 132.62,79.3204 134.5,76.5C 133.833,76.5 133.167,76.5 132.5,76.5C 132.5,74.5 132.5,72.5 132.5,70.5C 134.199,70.6602 135.866,70.4935 137.5,70C 136.692,69.6924 136.025,69.1924 135.5,68.5C 138.975,65.4289 142.975,63.4289 147.5,62.5C 147.785,64.288 147.452,65.9547 146.5,67.5C 145.019,68.4803 143.685,69.647 142.5,71C 144.965,70.4346 147.298,69.268 149.5,67.5C 150.833,69.1667 150.833,70.8333 149.5,72.5C 143.841,76.1711 138.508,80.1711 133.5,84.5 Z"/></g>
<g><path style="opacity:1" fill="#c9e990" d="M 93.5,75.5 C 90.3855,75.5548 88.0522,76.8881 86.5,79.5C 83.9426,81.0324 81.4426,82.6991 79,84.5C 78.1455,81.5934 78.9788,79.2601 81.5,77.5C 81.0623,76.4937 80.3957,76.4937 79.5,77.5C 78.3861,76.277 78.2195,74.9437 79,73.5C 81.3041,71.9315 83.8041,70.7648 86.5,70C 87.8333,69.3333 87.8333,68.6667 86.5,68C 88.6605,67.0041 90.3272,65.5041 91.5,63.5C 96.2265,62.3989 96.5598,63.2322 92.5,66C 95.1667,66.6667 95.1667,67.3333 92.5,68C 93.624,68.2492 94.624,68.7492 95.5,69.5C 94.8283,71.5295 94.1616,73.5295 93.5,75.5 Z"/></g>
<g><path style="opacity:1" fill="#2f3a23" d="M 134.5,76.5 C 135.574,75.1154 136.907,73.9487 138.5,73C 139.332,72.3123 139.998,72.479 140.5,73.5C 138.757,75.0383 136.757,76.0383 134.5,76.5 Z"/></g>
<g><path style="opacity:1" fill="#9eb474" d="M 147.5,75.5 C 148.552,75.3505 149.552,75.5172 150.5,76C 148.246,77.3767 146.08,78.8767 144,80.5C 143.333,79.8333 143.333,79.1667 144,78.5C 145.518,77.8366 146.685,76.8366 147.5,75.5 Z"/></g>
<g><path style="opacity:1" fill="#889d64" d="M 93.5,75.5 C 94.3764,75.3691 95.0431,75.7025 95.5,76.5C 94.7469,78.7534 93.4136,80.5867 91.5,82C 96.702,81.3706 96.702,82.2039 91.5,84.5C 90.8933,84.3764 90.56,84.0431 90.5,83.5C 89.7893,81.1582 88.456,80.8249 86.5,82.5C 87.1157,81.2022 87.1157,80.2022 86.5,79.5C 88.0522,76.8881 90.3855,75.5548 93.5,75.5 Z"/></g>
<g><path style="opacity:1" fill="#cded94" d="M 142.5,86.5 C 141.508,86.6716 140.842,86.3382 140.5,85.5C 142.942,84.1006 145.276,82.434 147.5,80.5C 148.583,81.365 148.749,82.365 148,83.5C 146.667,84.8333 145.333,86.1667 144,87.5C 143.617,86.944 143.117,86.6107 142.5,86.5 Z"/></g>
<g><path style="opacity:1" fill="#151811" d="M 130.5,74.5 C 131.167,75.1667 131.833,75.8333 132.5,76.5C 133.167,76.5 133.833,76.5 134.5,76.5C 132.62,79.3204 131.453,82.3204 131,85.5C 131.671,84.7476 132.504,84.4142 133.5,84.5C 133.938,84.4346 134.272,84.6012 134.5,85C 133.328,85.4186 132.328,86.0853 131.5,87C 134.084,87.0818 136.417,86.2485 138.5,84.5C 139.183,84.8627 139.85,85.1961 140.5,85.5C 140.842,86.3382 141.508,86.6716 142.5,86.5C 142.782,87.7777 143.449,88.7777 144.5,89.5C 139.4,93.8793 133.4,96.5459 126.5,97.5C 132.753,98.7293 138.087,101.729 142.5,106.5C 144.301,116.057 145.467,125.724 146,135.5C 147.879,137.527 149.046,139.86 149.5,142.5C 150.5,142.5 151.5,142.5 152.5,142.5C 153.154,136.81 153.487,131.144 153.5,125.5C 155.259,124.246 156.759,124.579 158,126.5C 158.667,129.167 158.667,131.833 158,134.5C 157.257,140.725 154.091,145.058 148.5,147.5C 147.957,147.56 147.624,147.893 147.5,148.5C 148.243,149.182 148.909,149.849 149.5,150.5C 140.445,150.89 133.612,147.224 129,139.5C 127.939,134.133 126.773,128.8 125.5,123.5C 125.747,119.117 125.747,114.783 125.5,110.5C 124.689,109.784 124.022,108.95 123.5,108C 126.457,105.816 126.123,104.649 122.5,104.5C 122.539,100.909 120.706,98.9095 117,98.5C 110.184,99.6053 103.351,99.6053 96.5,98.5C 96.3285,100.492 96.9951,102.158 98.5,103.5C 97.3887,104.611 96.722,105.945 96.5,107.5C 96.377,118.411 96.7104,129.578 97.5,141C 98.8582,142.689 100.525,144.022 102.5,145C 107.489,145.499 112.489,145.666 117.5,145.5C 117.5,146.5 117.5,147.5 117.5,148.5C 97.4948,148.419 77.4948,148.085 57.5,147.5C 57.5,146.5 57.5,145.5 57.5,144.5C 63.1825,145.105 68.3492,143.771 73,140.5C 75.2475,134.442 76.0808,128.109 75.5,121.5C 75.2155,119.585 75.5489,117.919 76.5,116.5C 76.3691,117.376 76.7025,118.043 77.5,118.5C 81.6438,115.524 85.6438,112.357 89.5,109C 90.1667,108.333 90.8333,108.333 91.5,109C 89.6061,110.101 88.9394,111.434 89.5,113C 85.3333,115.833 81.1667,118.667 77,121.5C 76.2506,122.635 76.4173,123.635 77.5,124.5C 82.6776,121.078 87.6776,117.411 92.5,113.5C 94.9387,110.588 94.6053,107.755 91.5,105C 95.2778,103.36 95.2778,102.193 91.5,101.5C 89.7033,101.065 87.7033,101.065 85.5,101.5C 87.0938,100.017 88.7605,98.517 90.5,97C 90.2716,96.6012 89.9382,96.4346 89.5,96.5C 89.8333,95.8333 90.1667,95.1667 90.5,94.5C 91.1667,94.5 91.8333,94.5 92.5,94.5C 94.1993,94.5271 95.5326,95.1938 96.5,96.5C 101.844,96.666 107.177,96.4994 112.5,96C 119.585,95.2363 124.751,91.7363 128,85.5C 128.595,84.1011 128.428,82.7678 127.5,81.5C 129.854,79.7539 130.854,77.4206 130.5,74.5 Z"/></g>
<g><path style="opacity:1" fill="#c2e08d" d="M 90.5,83.5 C 86.3907,85.0594 82.7241,87.3927 79.5,90.5C 79.8333,90.8333 80.1667,91.1667 80.5,91.5C 84.2247,88.8001 88.2247,86.9667 92.5,86C 90.9069,86.9487 89.5736,88.1154 88.5,89.5C 84.8855,91.277 81.3855,93.277 78,95.5C 77.3333,92.8333 77.3333,90.1667 78,87.5C 80.9708,85.9363 83.8041,84.2696 86.5,82.5C 88.456,80.8249 89.7893,81.1582 90.5,83.5 Z"/></g>
<g><path style="opacity:1" fill="#c0da8c" d="M 92.5,91.5 C 93.552,91.3505 94.552,91.5172 95.5,92C 94.4293,92.8518 93.4293,93.6851 92.5,94.5C 91.8333,94.5 91.1667,94.5 90.5,94.5C 91.1667,93.5 91.8333,92.5 92.5,91.5 Z"/></g>
<g><path style="opacity:1" fill="#c0dc8c" d="M 138.5,87.5 C 139.773,88.0768 139.773,88.7435 138.5,89.5C 135.671,90.7467 133.005,92.2467 130.5,94C 128.179,94.8365 125.845,95.1699 123.5,95C 128.292,91.9371 133.292,89.4371 138.5,87.5 Z"/></g>
<g><path style="opacity:1" fill="#bed98a" d="M 92.5,91.5 C 87.5503,93.98 82.8836,96.98 78.5,100.5C 77.4063,99.132 77.7397,97.9653 79.5,97C 82.8333,95 86.1667,93 89.5,91C 88.944,90.6174 88.6107,90.1174 88.5,89.5C 90.7567,89.0383 92.7567,88.0383 94.5,86.5C 94.8333,86.8333 95.1667,87.1667 95.5,87.5C 94.3349,88.5836 93.0016,89.4169 91.5,90C 92.056,90.3826 92.3893,90.8826 92.5,91.5 Z"/></g>
<g><path style="opacity:1" fill="#8fa36a" d="M 93.5,96.5 C 94.7736,97.1894 94.7736,98.0228 93.5,99C 92.5,99.6667 91.5,99.6667 90.5,99C 91.5707,98.1482 92.5707,97.3149 93.5,96.5 Z"/></g>
<g><path style="opacity:1" fill="#bdd889" d="M 89.5,96.5 C 89.9382,96.4346 90.2716,96.6012 90.5,97C 88.7605,98.517 87.0938,100.017 85.5,101.5C 82.8714,102.96 80.3714,104.626 78,106.5C 76.7425,106.15 76.4092,105.483 77,104.5C 81.0502,101.61 85.2168,98.943 89.5,96.5 Z"/></g>
<g><path style="opacity:1" fill="#bad587" d="M 85.5,106.5 C 82.5461,108.28 79.7128,110.28 77,112.5C 76.3162,111.216 76.4829,110.049 77.5,109C 81.0271,106.409 84.6938,104.409 88.5,103C 87.2899,104.039 86.2899,105.206 85.5,106.5 Z"/></g>
<g><path style="opacity:1" fill="#afc97f" d="M 126.5,100.5 C 129.254,100.784 131.92,101.451 134.5,102.5C 133.355,103.891 133.355,105.224 134.5,106.5C 135.609,105.41 136.609,105.41 137.5,106.5C 136.5,107.333 135.5,108.167 134.5,109C 135.167,109.333 135.833,109.667 136.5,110C 134.301,111.697 131.968,113.197 129.5,114.5C 129.167,114.333 128.833,114.167 128.5,114C 129.984,112.426 131.651,111.093 133.5,110C 129.093,108.35 126.76,105.184 126.5,100.5 Z"/></g>
<g><path style="opacity:1" fill="#5fd2e7" d="M 420.5,113.5 C 420.666,118.844 420.499,124.177 420,129.5C 418.667,129.5 417.333,129.5 416,129.5C 414.327,127.083 412.494,127.083 410.5,129.5C 405.007,126.408 399.174,125.742 393,127.5C 392.055,127.095 391.388,126.428 391,125.5C 390.044,126.894 388.711,127.561 387,127.5C 384.312,126.323 381.646,126.323 379,127.5C 378.055,127.095 377.388,126.428 377,125.5C 376.044,126.894 374.711,127.561 373,127.5C 370.461,126.398 367.961,126.398 365.5,127.5C 364.522,127.023 363.689,126.357 363,125.5C 362.044,126.894 360.711,127.561 359,127.5C 356.638,126.371 354.305,126.371 352,127.5C 350.739,127.241 349.739,126.574 349,125.5C 348.044,126.894 346.711,127.561 345,127.5C 342.638,126.371 340.305,126.371 338,127.5C 336.739,127.241 335.739,126.574 335,125.5C 334.044,126.894 332.711,127.561 331,127.5C 328.638,126.371 326.305,126.371 324,127.5C 323.05,126.978 322.216,126.311 321.5,125.5C 320.389,126.611 319.055,127.278 317.5,127.5C 314.988,126.244 312.488,126.244 310,127.5C 309.05,126.978 308.216,126.311 307.5,125.5C 306.389,126.611 305.055,127.278 303.5,127.5C 300.988,126.244 298.488,126.244 296,127.5C 295.055,127.095 294.388,126.428 294,125.5C 293.044,126.894 291.711,127.561 290,127.5C 287.312,126.323 284.646,126.323 282,127.5C 281.055,127.095 280.388,126.428 280,125.5C 279.044,126.894 277.711,127.561 276,127.5C 272.939,126.682 269.939,125.682 267,124.5C 261.215,125.01 255.382,125.01 249.5,124.5C 249.649,123.448 249.483,122.448 249,121.5C 248.434,123.723 247.6,125.723 246.5,127.5C 246.552,118.482 246.218,109.482 245.5,100.5C 248.023,99.7463 250.689,99.0796 253.5,98.5C 299.839,98.8388 346.172,98.8388 392.5,98.5C 400.873,101.43 409.539,101.93 418.5,100C 419.126,99.2496 419.626,98.4162 420,97.5C 420.499,102.823 420.666,108.156 420.5,113.5 Z"/></g>
<g><path style="opacity:1" fill="#bdd989" d="M 91.5,101.5 C 95.2778,102.193 95.2778,103.36 91.5,105C 94.6053,107.755 94.9387,110.588 92.5,113.5C 87.6776,117.411 82.6776,121.078 77.5,124.5C 76.4173,123.635 76.2506,122.635 77,121.5C 81.1667,118.667 85.3333,115.833 89.5,113C 88.9394,111.434 89.6061,110.101 91.5,109C 90.8333,108.333 90.1667,108.333 89.5,109C 85.6438,112.357 81.6438,115.524 77.5,118.5C 76.7025,118.043 76.3691,117.376 76.5,116.5C 79.7365,113.203 83.4031,110.37 87.5,108C 86.5842,107.722 85.9175,107.222 85.5,106.5C 88.0892,105.581 90.0892,103.914 91.5,101.5 Z"/></g>
<g><path style="opacity:1" fill="#a2b979" d="M 133.5,116.5 C 134.002,114.915 135.002,114.415 136.5,115C 135.756,116.039 134.756,116.539 133.5,116.5 Z"/></g>
<g><path style="opacity:1" fill="#b4cf83" d="M 140.5,113.5 C 142.465,113.948 142.798,114.948 141.5,116.5C 139.544,117.548 137.544,118.048 135.5,118C 137.24,116.483 138.906,114.983 140.5,113.5 Z"/></g>
<g><path style="opacity:1" fill="#acc57e" d="M 133.5,116.5 C 132.594,118.914 130.928,119.747 128.5,119C 129.653,117.117 131.319,116.284 133.5,116.5 Z"/></g>
<g><path style="opacity:1" fill="#b4cb86" d="M 91.5,119.5 C 92.2389,119.369 92.9056,119.536 93.5,120C 92.5342,121.678 91.2009,122.345 89.5,122C 90.3805,121.292 91.0472,120.458 91.5,119.5 Z"/></g>
<g><path style="opacity:1" fill="#bfdc8a" d="M 138.5,118.5 C 139.239,118.369 139.906,118.536 140.5,119C 135.236,122.64 135.57,123.14 141.5,120.5C 142.631,122.074 142.798,123.741 142,125.5C 141.612,124.572 140.945,123.905 140,123.5C 138.333,124.833 136.667,124.833 135,123.5C 133.829,124.34 132.662,125.173 131.5,126C 130.269,127.183 130.269,128.349 131.5,129.5C 132.62,128.167 133.953,127.667 135.5,128C 133.709,130.414 132.043,132.914 130.5,135.5C 129.125,131.922 128.625,128.256 129,124.5C 131.848,121.848 135.015,119.848 138.5,118.5 Z"/></g>
<g><path style="opacity:1" fill="#acc47d" d="M 87.5,119.5 C 88.2389,119.369 88.9056,119.536 89.5,120C 85.6858,122.98 82.0191,126.146 78.5,129.5C 77.1667,128.5 77.1667,127.5 78.5,126.5C 81.75,124.388 84.75,122.055 87.5,119.5 Z"/></g>
<g><path style="opacity:1" fill="#c2df8c" d="M 76.5,140.5 C 78.5846,134.919 82.5846,131.086 88.5,129C 88.0426,128.586 87.7093,128.086 87.5,127.5C 89.5,125.833 91.5,124.167 93.5,122.5C 93.8333,123 94.1667,123.5 94.5,124C 90.4278,130.992 84.4278,136.492 76.5,140.5 Z"/></g>
<g><path style="opacity:1" fill="#899d65" d="M 92.5,137.5 C 92.1667,138.5 91.5,139.167 90.5,139.5C 90.1667,138.5 89.5,137.833 88.5,137.5C 90.0311,136.075 89.6977,135.409 87.5,135.5C 88.6002,134.442 89.9336,133.608 91.5,133C 91.0574,131.482 91.7241,130.315 93.5,129.5C 93.5639,130.365 93.8973,131.365 94.5,132.5C 93.5,133.333 92.5,134.167 91.5,135C 92.7376,134.923 93.7376,135.089 94.5,135.5C 93.7573,136.182 93.0906,136.849 92.5,137.5 Z"/></g>
<g><path style="opacity:1" fill="#bfdb8b" d="M 139.5,131.5 C 140.239,131.369 140.906,131.536 141.5,132C 140.289,132.893 140.289,133.726 141.5,134.5C 142.687,133.106 143.354,133.273 143.5,135C 143.095,135.945 142.428,136.612 141.5,137C 141.833,137.333 142.167,137.667 142.5,138C 140.188,140.375 137.521,141.708 134.5,142C 135.984,140.426 137.651,139.093 139.5,138C 138.167,137.333 138.167,136.667 139.5,136C 137.124,136.442 134.957,137.609 133,139.5C 131.941,139.37 131.108,138.87 130.5,138C 133.567,135.812 136.567,133.645 139.5,131.5 Z"/></g>
<g><path style="opacity:1" fill="#cdea94" d="M 87.5,135.5 C 89.6977,135.409 90.0311,136.075 88.5,137.5C 80.7797,144.14 81.4463,144.807 90.5,139.5C 91.5,139.167 92.1667,138.5 92.5,137.5C 93.0431,137.56 93.3764,137.893 93.5,138.5C 92.5,140.5 91.5,142.5 90.5,144.5C 84.4914,145.577 78.4914,145.41 72.5,144C 73.7051,142.624 75.0384,141.458 76.5,140.5C 76.56,141.043 76.8933,141.376 77.5,141.5C 81.1128,139.871 84.4462,137.871 87.5,135.5 Z"/></g>
<g><path style="opacity:1" fill="#191c14" d="M 88.5,137.5 C 89.5,137.833 90.1667,138.5 90.5,139.5C 81.4463,144.807 80.7797,144.14 88.5,137.5 Z"/></g>
<g><path style="opacity:1" fill="#a9c27b" d="M 142.5,139.5 C 144.346,139.222 145.68,139.889 146.5,141.5C 144.585,143.071 143.585,145.071 143.5,147.5C 141.335,147.884 139.668,147.217 138.5,145.5C 140.028,144.139 141.695,142.972 143.5,142C 142.748,141.329 142.414,140.496 142.5,139.5 Z"/></g>
<g><path style="opacity:1" fill="#bdd88b" d="M 93.5,140.5 C 95.6825,141.3 97.3492,142.8 98.5,145C 96.8333,145.667 95.1667,145.667 93.5,145C 92.6518,143.812 92.6518,142.312 93.5,140.5 Z"/></g>
<g><path style="opacity:1" fill="#5cd9e8" d="M 420.5,113.5 C 420.833,113.5 421.167,113.5 421.5,113.5C 421.5,139.5 421.5,165.5 421.5,191.5C 420.839,190.282 420.172,188.949 419.5,187.5C 417.326,188.863 415.159,189.197 413,188.5C 412.333,191.167 411.667,191.167 411,188.5C 410.8,190.32 409.966,191.653 408.5,192.5C 409.841,187.473 411.341,182.473 413,177.5C 415.365,169.964 413.198,164.464 406.5,161C 397.57,158.553 390.403,161.053 385,168.5C 384.008,165.336 382.175,162.836 379.5,161C 372.615,159.902 365.949,160.569 359.5,163C 358.426,163.739 357.759,164.739 357.5,166C 358.723,167.72 359.723,169.553 360.5,171.5C 358.33,178.677 355.997,185.677 353.5,192.5C 353.5,191.167 353.5,189.833 353.5,188.5C 350.07,188.893 346.904,188.227 344,186.5C 341.033,188.073 337.866,189.407 334.5,190.5C 332.189,189.546 330.022,189.212 328,189.5C 327.51,190.793 327.343,192.127 327.5,193.5C 333.312,192.947 339.312,192.614 345.5,192.5C 345.768,194.099 345.434,195.432 344.5,196.5C 344.5,195.5 344.5,194.5 344.5,193.5C 337.962,195.211 331.295,195.711 324.5,195C 321.976,193.117 320.642,190.617 320.5,187.5C 329.94,188.44 338.94,186.94 347.5,183C 353.125,175.98 352.792,169.314 346.5,163C 330.844,156.213 317.011,158.713 305,170.5C 299.051,179.66 298.051,189.327 302,199.5C 304.069,202.406 306.569,204.739 309.5,206.5C 300.605,205.266 291.938,205.266 283.5,206.5C 294.844,196.859 299.344,184.525 297,169.5C 293.371,161.436 287.205,158.269 278.5,160C 275.059,161.776 271.892,163.943 269,166.5C 267.833,164 266,162.167 263.5,161C 258.5,160.333 253.5,160.333 248.5,161C 246.101,161.731 243.935,162.898 242,164.5C 242.397,167.032 243.23,169.532 244.5,172C 244.607,174.221 243.94,176.054 242.5,177.5C 241.336,173.6 240.003,173.6 238.5,177.5C 237.583,178.127 236.583,178.461 235.5,178.5C 242.357,162.218 246.024,145.218 246.5,127.5C 247.6,125.723 248.434,123.723 249,121.5C 249.483,122.448 249.649,123.448 249.5,124.5C 255.382,125.01 261.215,125.01 267,124.5C 269.939,125.682 272.939,126.682 276,127.5C 277.711,127.561 279.044,126.894 280,125.5C 280.388,126.428 281.055,127.095 282,127.5C 284.646,126.323 287.312,126.323 290,127.5C 291.711,127.561 293.044,126.894 294,125.5C 294.388,126.428 295.055,127.095 296,127.5C 298.488,126.244 300.988,126.244 303.5,127.5C 305.055,127.278 306.389,126.611 307.5,125.5C 308.216,126.311 309.05,126.978 310,127.5C 312.488,126.244 314.988,126.244 317.5,127.5C 319.055,127.278 320.389,126.611 321.5,125.5C 322.216,126.311 323.05,126.978 324,127.5C 326.305,126.371 328.638,126.371 331,127.5C 332.711,127.561 334.044,126.894 335,125.5C 335.739,126.574 336.739,127.241 338,127.5C 340.305,126.371 342.638,126.371 345,127.5C 346.711,127.561 348.044,126.894 349,125.5C 349.739,126.574 350.739,127.241 352,127.5C 354.305,126.371 356.638,126.371 359,127.5C 360.711,127.561 362.044,126.894 363,125.5C 363.689,126.357 364.522,127.023 365.5,127.5C 367.961,126.398 370.461,126.398 373,127.5C 374.711,127.561 376.044,126.894 377,125.5C 377.388,126.428 378.055,127.095 379,127.5C 381.646,126.323 384.312,126.323 387,127.5C 388.711,127.561 390.044,126.894 391,125.5C 391.388,126.428 392.055,127.095 393,127.5C 399.174,125.742 405.007,126.408 410.5,129.5C 412.494,127.083 414.327,127.083 416,129.5C 417.333,129.5 418.667,129.5 420,129.5C 420.499,124.177 420.666,118.844 420.5,113.5 Z"/></g>
<g><path style="opacity:1" fill="#027cfe" d="M 283.5,206.5 C 275.038,209.857 266.538,210.19 258,207.5C 254.287,212.795 253.787,218.295 256.5,224C 256.355,224.772 256.022,225.439 255.5,226C 245.833,226.667 236.167,226.667 226.5,226C 225.978,225.439 225.645,224.772 225.5,224C 229.473,220.787 231.973,216.621 233,211.5C 236.071,200.124 239.237,188.791 242.5,177.5C 243.94,176.054 244.607,174.221 244.5,172C 243.23,169.532 242.397,167.032 242,164.5C 243.935,162.898 246.101,161.731 248.5,161C 253.5,160.333 258.5,160.333 263.5,161C 266,162.167 267.833,164 269,166.5C 271.892,163.943 275.059,161.776 278.5,160C 287.205,158.269 293.371,161.436 297,169.5C 299.344,184.525 294.844,196.859 283.5,206.5 Z"/></g>
<g><path style="opacity:1" fill="#027cfe" d="M 344.5,196.5 C 341.318,203.275 335.984,207.442 328.5,209C 321.859,210.088 315.525,209.255 309.5,206.5C 306.569,204.739 304.069,202.406 302,199.5C 298.051,189.327 299.051,179.66 305,170.5C 317.011,158.713 330.844,156.213 346.5,163C 352.792,169.314 353.125,175.98 347.5,183C 338.94,186.94 329.94,188.44 320.5,187.5C 320.642,190.617 321.976,193.117 324.5,195C 331.295,195.711 337.962,195.211 344.5,193.5C 344.5,194.5 344.5,195.5 344.5,196.5 Z"/></g>
<g><path style="opacity:1" fill="#037cfe" d="M 408.5,192.5 C 407.659,194.379 407.325,196.379 407.5,198.5C 412.431,196.983 413.598,198.65 411,203.5C 405.289,209.117 398.455,210.95 390.5,209C 385.664,207.008 383.331,203.341 383.5,198C 385.125,190.625 387.458,183.459 390.5,176.5C 390.566,174.734 389.732,173.734 388,173.5C 383.777,174.76 381.277,177.593 380.5,182C 377.725,188.967 376.225,196.134 376,203.5C 377.682,204.865 377.849,206.365 376.5,208C 366.934,209.613 357.267,209.947 347.5,209C 346.483,207.951 346.316,206.784 347,205.5C 351.297,202.239 353.464,197.906 353.5,192.5C 355.997,185.677 358.33,178.677 360.5,171.5C 359.723,169.553 358.723,167.72 357.5,166C 357.759,164.739 358.426,163.739 359.5,163C 365.949,160.569 372.615,159.902 379.5,161C 382.175,162.836 384.008,165.336 385,168.5C 390.403,161.053 397.57,158.553 406.5,161C 413.198,164.464 415.365,169.964 413,177.5C 411.341,182.473 409.841,187.473 408.5,192.5 Z"/></g>
<g><path style="opacity:1" fill="#1a1e14" d="M 174.5,171.5 C 174.607,173.379 174.107,173.712 173,172.5C 170.966,173.721 169.133,175.055 167.5,176.5C 167.167,175.833 166.833,175.167 166.5,174.5C 169.167,173.833 170.833,172.167 171.5,169.5C 172.5,169.167 173.167,168.5 173.5,167.5C 175.075,164.418 177.242,161.751 180,159.5C 183.027,154.072 181.527,150.739 175.5,149.5C 181.5,148.167 187.5,148.167 193.5,149.5C 192.271,150.281 190.938,150.781 189.5,151C 186.703,154.799 183.536,158.299 180,161.5C 177.361,164.45 175.527,167.783 174.5,171.5 Z"/></g>
<g><path style="opacity:1" fill="#313a24" d="M 148.5,147.5 C 155.345,148.167 162.345,148.833 169.5,149.5C 167.922,150.298 166.256,150.798 164.5,151C 163.978,151.561 163.645,152.228 163.5,153C 165.947,158.585 169.28,163.418 173.5,167.5C 173.167,168.5 172.5,169.167 171.5,169.5C 168.892,169.4 166.558,170.067 164.5,171.5C 165.845,169.309 167.845,167.975 170.5,167.5C 166.873,166.646 164.207,167.979 162.5,171.5C 161.657,169.827 160.324,168.66 158.5,168C 158.833,167.667 159.167,167.333 159.5,167C 157.301,163.147 155.134,159.313 153,155.5C 151.933,154.809 150.766,154.309 149.5,154C 150.171,153.014 150.171,151.847 149.5,150.5C 148.909,149.849 148.243,149.182 147.5,148.5C 147.624,147.893 147.957,147.56 148.5,147.5 Z"/></g>
<g><path style="opacity:1" fill="#a0ba70" d="M 157.5,158.5 C 158.239,158.369 158.906,158.536 159.5,159C 158.304,159.654 158.304,160.154 159.5,160.5C 160.622,159.37 161.956,158.703 163.5,158.5C 165.442,160.685 166.442,163.019 166.5,165.5C 165.672,166.415 164.672,167.081 163.5,167.5C 160.235,165.293 158.235,162.293 157.5,158.5 Z"/></g>
<g><path style="opacity:1" fill="#6c7f4c" d="M 163.5,158.5 C 161.956,158.703 160.622,159.37 159.5,160.5C 158.304,160.154 158.304,159.654 159.5,159C 158.906,158.536 158.239,158.369 157.5,158.5C 156.942,157.21 155.942,156.377 154.5,156C 156.241,154.38 158.075,152.88 160,151.5C 162.734,152.362 162.901,153.195 160.5,154C 162.991,154.626 162.991,155.459 160.5,156.5C 160.938,157.506 161.604,157.506 162.5,156.5C 163.298,156.957 163.631,157.624 163.5,158.5 Z"/></g>
<g><path style="opacity:1" fill="#c3e18b" d="M 171.5,169.5 C 170.833,172.167 169.167,173.833 166.5,174.5C 165.094,174.027 164.427,173.027 164.5,171.5C 166.558,170.067 168.892,169.4 171.5,169.5 Z"/></g>
<g><path style="opacity:1" fill="#57d9ed" d="M 327.5,167.5 C 329.484,167.484 330.484,168.484 330.5,170.5C 330.246,174.707 328.579,178.207 325.5,181C 324.207,181.49 322.873,181.657 321.5,181.5C 321.87,176.097 323.87,171.431 327.5,167.5 Z"/></g>
<g><path style="opacity:1" fill="#758954" d="M 164.5,171.5 C 164.427,173.027 165.094,174.027 166.5,174.5C 166.833,175.167 167.167,175.833 167.5,176.5C 166.833,177.167 166.167,177.833 165.5,178.5C 164.773,176.046 163.773,173.713 162.5,171.5C 164.207,167.979 166.873,166.646 170.5,167.5C 167.845,167.975 165.845,169.309 164.5,171.5 Z"/></g>
<g><path style="opacity:1" fill="#465332" d="M 174.5,171.5 C 175.737,172.965 176.737,174.632 177.5,176.5C 176.833,176.5 176.5,176.833 176.5,177.5C 173.111,180.124 172.778,179.624 175.5,176C 171.862,175.485 169.529,176.985 168.5,180.5C 167.833,180.5 167.5,180.167 167.5,179.5C 167.5,178.5 167.5,177.5 167.5,176.5C 169.133,175.055 170.966,173.721 173,172.5C 174.107,173.712 174.607,173.379 174.5,171.5 Z"/></g>
<g><path style="opacity:1" fill="#5bdeec" d="M 269.5,172.5 C 270.833,172.5 272.167,172.5 273.5,172.5C 273.435,181.201 271.602,189.535 268,197.5C 266.561,199.448 264.728,200.781 262.5,201.5C 261,201.547 260,200.881 259.5,199.5C 261.999,191.506 264.499,183.506 267,175.5C 268.045,174.627 268.878,173.627 269.5,172.5 Z"/></g>
<g><path style="opacity:1" fill="#bfdd88" d="M 176.5,177.5 C 176.405,180.272 175.071,182.272 172.5,183.5C 171.289,182.726 171.289,181.893 172.5,181C 171.207,180.51 169.873,180.343 168.5,180.5C 169.529,176.985 171.862,175.485 175.5,176C 172.778,179.624 173.111,180.124 176.5,177.5 Z"/></g>
<g><path style="opacity:1" fill="#202619" d="M 177.5,176.5 C 180.208,180.55 182.208,184.884 183.5,189.5C 182.833,189.167 182.167,188.833 181.5,188.5C 180.652,187.375 179.652,187.375 178.5,188.5C 177.829,187.153 177.829,185.986 178.5,185C 176.122,184.026 176.456,183.359 179.5,183C 176.187,182.136 173.854,183.302 172.5,186.5C 170.674,184.853 169.34,182.853 168.5,180.5C 169.873,180.343 171.207,180.51 172.5,181C 171.289,181.893 171.289,182.726 172.5,183.5C 175.071,182.272 176.405,180.272 176.5,177.5C 176.5,176.833 176.833,176.5 177.5,176.5 Z"/></g>
<g><path style="opacity:1" fill="#434f31" d="M 178.5,188.5 C 175.651,192.151 176.318,192.985 180.5,191C 181.252,190.329 181.586,189.496 181.5,188.5C 182.167,188.833 182.833,189.167 183.5,189.5C 183.5,190.5 183.5,191.5 183.5,192.5C 181.282,192.614 179.282,193.28 177.5,194.5C 175.347,192.206 173.68,189.54 172.5,186.5C 173.854,183.302 176.187,182.136 179.5,183C 176.456,183.359 176.122,184.026 178.5,185C 177.829,185.986 177.829,187.153 178.5,188.5 Z"/></g>
<g><path style="opacity:1" fill="#bbd885" d="M 181.5,188.5 C 181.586,189.496 181.252,190.329 180.5,191C 176.318,192.985 175.651,192.151 178.5,188.5C 179.652,187.375 180.652,187.375 181.5,188.5 Z"/></g>
<g><path style="opacity:1" fill="#5be4e9" d="M 21.5,178.5 C 31.1533,198.492 45.1533,214.825 63.5,227.5C 49.5,227.5 35.5,227.5 21.5,227.5C 21.5,211.167 21.5,194.833 21.5,178.5 Z"/></g>
<g><path style="opacity:1" fill="#1f2518" d="M 167.5,176.5 C 167.5,177.5 167.5,178.5 167.5,179.5C 164.885,181.379 162.719,183.712 161,186.5C 155.24,194.143 157.073,198.643 166.5,200C 159.842,200.5 153.175,200.666 146.5,200.5C 146.281,199.325 146.614,198.325 147.5,197.5C 151.111,195.777 154.278,193.444 157,190.5C 159.664,186.343 162.497,182.343 165.5,178.5C 166.167,177.833 166.833,177.167 167.5,176.5 Z"/></g>
<g><path style="opacity:1" fill="#171b12" d="M 183.5,189.5 C 185.4,191.619 187.066,193.953 188.5,196.5C 188.167,196.5 187.833,196.5 187.5,196.5C 185.316,195.892 183.316,196.559 181.5,198.5C 180.5,199.5 179.5,200.5 178.5,201.5C 176.076,201.808 173.743,201.474 171.5,200.5C 173.396,199.534 175.396,199.201 177.5,199.5C 177.5,197.833 177.5,196.167 177.5,194.5C 179.282,193.28 181.282,192.614 183.5,192.5C 183.5,191.5 183.5,190.5 183.5,189.5 Z"/></g>
<g><path style="opacity:1" fill="#cae992" d="M 187.5,196.5 C 187.611,197.117 187.944,197.617 188.5,198C 186.645,198.422 184.811,198.922 183,199.5C 182.235,199.43 181.735,199.097 181.5,198.5C 183.316,196.559 185.316,195.892 187.5,196.5 Z"/></g>
<g><path style="opacity:1" fill="#485634" d="M 187.5,196.5 C 187.833,196.5 188.167,196.5 188.5,196.5C 190.001,197.752 191.668,198.752 193.5,199.5C 193.167,200.5 192.5,201.167 191.5,201.5C 187.167,201.5 182.833,201.5 178.5,201.5C 179.5,200.5 180.5,199.5 181.5,198.5C 181.735,199.097 182.235,199.43 183,199.5C 184.811,198.922 186.645,198.422 188.5,198C 187.944,197.617 187.611,197.117 187.5,196.5 Z"/></g>
<g><path style="opacity:1" fill="#5ce6e9" d="M 408.5,192.5 C 409.966,191.653 410.8,190.32 411,188.5C 411.667,191.167 412.333,191.167 413,188.5C 415.159,189.197 417.326,188.863 419.5,187.5C 420.172,188.949 420.839,190.282 421.5,191.5C 421.5,203.5 421.5,215.5 421.5,227.5C 345.833,227.5 270.167,227.5 194.5,227.5C 212.128,214.533 225.795,198.2 235.5,178.5C 236.583,178.461 237.583,178.127 238.5,177.5C 240.003,173.6 241.336,173.6 242.5,177.5C 239.237,188.791 236.071,200.124 233,211.5C 231.973,216.621 229.473,220.787 225.5,224C 225.645,224.772 225.978,225.439 226.5,226C 236.167,226.667 245.833,226.667 255.5,226C 256.022,225.439 256.355,224.772 256.5,224C 253.787,218.295 254.287,212.795 258,207.5C 266.538,210.19 275.038,209.857 283.5,206.5C 291.938,205.266 300.605,205.266 309.5,206.5C 315.525,209.255 321.859,210.088 328.5,209C 335.984,207.442 341.318,203.275 344.5,196.5C 345.434,195.432 345.768,194.099 345.5,192.5C 339.312,192.614 333.312,192.947 327.5,193.5C 327.343,192.127 327.51,190.793 328,189.5C 330.022,189.212 332.189,189.546 334.5,190.5C 337.866,189.407 341.033,188.073 344,186.5C 346.904,188.227 350.07,188.893 353.5,188.5C 353.5,189.833 353.5,191.167 353.5,192.5C 353.464,197.906 351.297,202.239 347,205.5C 346.316,206.784 346.483,207.951 347.5,209C 357.267,209.947 366.934,209.613 376.5,208C 377.849,206.365 377.682,204.865 376,203.5C 376.225,196.134 377.725,188.967 380.5,182C 381.277,177.593 383.777,174.76 388,173.5C 389.732,173.734 390.566,174.734 390.5,176.5C 387.458,183.459 385.125,190.625 383.5,198C 383.331,203.341 385.664,207.008 390.5,209C 398.455,210.95 405.289,209.117 411,203.5C 413.598,198.65 412.431,196.983 407.5,198.5C 407.325,196.379 407.659,194.379 408.5,192.5 Z"/></g>
<g><path style="opacity:1" fill="#9cdac3" d="M 102.5,221.5 C 105.152,221.41 107.485,222.076 109.5,223.5C 106.848,223.59 104.515,222.924 102.5,221.5 Z"/></g>
</svg>
